<?xml version="1.0" encoding="UTF-8"?>
<svg id="Layer_2" data-name="Layer 2" xmlns="http://www.w3.org/2000/svg" xmlns:xlink="http://www.w3.org/1999/xlink" viewBox="0 0 499.82 77.97">
  <defs>
    <style>
      .cls-1 {
        letter-spacing: -.06em;
      }

      .cls-2 {
        fill: url(#linear-gradient-2);
      }

      .cls-3 {
        fill: url(#linear-gradient-4);
      }

      .cls-4 {
        fill: #666;
        font-family: ArialMT, Arial;
        font-size: 21px;
      }

      .cls-5 {
        fill: url(#linear-gradient-3);
      }

      .cls-6 {
        fill: url(#linear-gradient-5);
      }

      .cls-7 {
        fill: #636363;
      }

      .cls-8 {
        fill: #999;
      }

      .cls-9 {
        fill: #216cb7;
      }

      .cls-10 {
        fill: url(#linear-gradient-6);
      }

      .cls-11 {
        fill: #36c;
      }

      .cls-12 {
        fill: url(#linear-gradient);
      }
    </style>
    <linearGradient id="linear-gradient" x1="55.26" y1="2.21" x2="55.26" y2="37.64" gradientUnits="userSpaceOnUse">
      <stop offset="0" stop-color="#699ccf"/>
      <stop offset="1" stop-color="#9cf"/>
    </linearGradient>
    <linearGradient id="linear-gradient-2" x1="27.17" y1="2.21" x2="27.17" y2="37.64" xlink:href="#linear-gradient"/>
    <linearGradient id="linear-gradient-3" x1="84.92" y1="2.21" x2="84.92" y2="37.64" xlink:href="#linear-gradient"/>
    <linearGradient id="linear-gradient-4" x1="20.83" y1="68.51" x2="20.83" y2="37.96" gradientUnits="userSpaceOnUse">
      <stop offset="0" stop-color="#5b92c8"/>
      <stop offset="1" stop-color="#216cb7"/>
    </linearGradient>
    <linearGradient id="linear-gradient-5" x1="92.69" y1="68.51" x2="92.69" y2="37.96" xlink:href="#linear-gradient-4"/>
    <linearGradient id="linear-gradient-6" x1="55.59" y1="68.51" x2="55.59" y2="37.96" xlink:href="#linear-gradient-4"/>
  </defs>
  <path class="cls-11" d="M77.16,25.17c4.23-3.83,22.95-19.53,27.28-21.85,2.62-.7,5.13-1.01,6.64-1.21l.6-2.11c-3.42.2-8.05.4-10.97.4-3.93,0-11.07-.2-15.3-.4l.4,2.11c2.21.3,5.13.81,7.45,1.41-2.92,4.93-25.77,24.46-32.32,30.2v-3.12c0-8.26.1-23.86.5-27.08.81-.14,2.18-.33,3.65-.53,2.58-.28,5.63-.56,6.98-.68l.3-2.11h-.3s.04-.2.04-.2c-.6.06-2.06.13-3.91.18l-17.58-.08c-9.56,0-21.54.1-28.39,2.82-5.34,2.11-8.66,5.94-8.66,11.48,0,6.34,6.44,14.7,14.2,19.03-1.11,2.52-17.32,28.89-27.79,39.97l4.43.71c7.05-3.22,33.83-34.13,35.44-36.24,3.79.3,7.86.6,9.61.6-.03,13.23-.22,25.18-.5,29.3-1.03.26-2.68.51-4.42.74-1,.13-2.04.25-3,.35,0,0-.02,0-.03,0-.06,0-.12.01-.19.02-1.21.13-2.29.23-3.04.29l-.4,2.11s.11,0,.16,0h0c2.5-.19,12.52-.39,17.2-.39.35,0,.71,0,1.09,0,4.61.03,13.89.21,16.04.4v-.06c.3.02.57.04.75.06l-.2-2.11c-1.51-.2-8.86-.8-11.48-1.91-.4-3.73-.5-17.82-.5-26.58v-2.42c1.31-1.21,4.43-3.83,6.34-5.23,2.82,3.02,36.75,37.75,44.6,40.77l3.42-1.11c-5.24-4.83-34.23-41.28-38.16-47.52ZM37.25,33.42c-4.33-1.61-11.48-6.24-11.48-16.21,0-6.26,5.51-13.84,21.79-14.28.55.07,1.05.13,1.44.2.08.73.15,2.32.21,4.42.04,1.63.09,3.52.12,5.54.09,5.29.14,11.62.14,16.6v5.64c-3.61,0-7.92-.31-12.23-1.91Z"/>
  <g>
    <path class="cls-7" d="M329.08,19.65c0-9.79,0-11.55-.12-13.56-.13-2.13-.63-3.14-2.7-3.58-.5-.13-1.57-.19-2.13-.19-.25,0-.5-.13-.5-.38,0-.38.31-.5,1-.5,2.82,0,6.53.19,6.9.19.56,0,4.2-.19,6.09-.19.69,0,1,.13,1,.5,0,.25-.25.38-.5.38-.44,0-.82.06-1.57.19-1.69.31-2.2,1.38-2.32,3.58-.12,2.01-.12,3.77-.12,13.56v3.77h.25c1.07-1.19,12.43-12.74,14.69-15.19,1.76-1.82,3.39-3.45,3.39-4.52,0-.75-.31-1.13-.82-1.32-.31-.13-.57-.25-.57-.5,0-.31.31-.44.75-.44,1.26,0,3.2.19,4.71.19.31,0,4.46-.19,6.03-.19.69,0,.94.13.94.44s-.13.44-.63.44c-.94,0-2.26.31-3.51.88-2.57,1.13-3.95,2.7-6.78,5.4-1.57,1.51-12.49,12.18-13.81,13.74,1.63,1.82,14.69,15.31,17.26,17.7,5.27,4.9,6.34,5.9,9.35,7.16,1.63.69,3.45.82,3.89.82s.82.13.82.38c0,.31-.31.5-1.38.5h-3.2c-1.76,0-2.95,0-4.33-.13-3.33-.31-4.9-1.69-7.59-3.83-2.82-2.32-16.13-16.69-19.14-20.4h-.31v6.15c0,6.02,0,10.98.31,13.62.19,1.82.56,3.2,2.45,3.45.88.13,1.88.25,2.45.25.38,0,.5.19.5.38,0,.31-.31.5-1,.5-3.08,0-6.71-.19-7.22-.19s-4.14.19-6.03.19c-.69,0-1-.13-1-.5,0-.19.13-.38.5-.38.57,0,1.32-.12,1.88-.25,1.26-.25,1.57-1.63,1.82-3.45.31-2.64.31-7.59.31-13.62v-11.05Z"/>
    <g>
      <path class="cls-7" d="M375.37,36.23c0,4.19,0,7.62.21,9.41.15,1.28.31,2.1,1.64,2.3.66.1,1.64.21,2.05.21.25,0,.36.2.36.36,0,.21-.2.36-.72.36-2.51,0-5.42-.15-5.63-.15-.26,0-3.07.15-4.45.15-.46,0-.72-.1-.72-.36,0-.15.1-.36.36-.36.41,0,.97-.1,1.38-.21.87-.2,1.02-1.02,1.18-2.3.21-1.79.26-5.22.26-9.41v-7.67c0-6.75,0-7.98-.1-9.36-.1-1.48-.46-2.15-1.43-2.35-.51-.1-1.07-.15-1.38-.15-.21,0-.36-.2-.36-.36,0-.26.21-.36.72-.36,1.48,0,4.3.1,4.55.1.2,0,3.12-.1,4.5-.1.51,0,.72.1.72.36,0,.15-.2.36-.36.36-.31,0-.61,0-1.12.1-1.23.26-1.48.87-1.59,2.4-.05,1.38-.05,2.61-.05,9.36v7.67Z"/>
      <path class="cls-7" d="M394.24,36.33c0,6.39.1,9,.92,9.77.72.72,2.46,1.02,5.98,1.02,2.35,0,4.35-.05,5.42-1.33.56-.67.92-1.59,1.07-2.46.05-.31.21-.56.46-.56.2,0,.31.21.31.67s-.31,3.07-.67,4.35c-.31,1.02-.46,1.18-2.86,1.18-3.22,0-5.73-.05-7.83-.15-2.05-.05-3.58-.1-4.91-.1-.21,0-.97,0-1.84.05-.92.05-1.89.1-2.61.1-.46,0-.72-.1-.72-.36,0-.15.1-.36.36-.36.41,0,.97-.1,1.38-.21.87-.2.97-1.02,1.18-2.3.26-1.79.26-5.22.26-9.41v-7.67c0-6.75,0-7.98-.1-9.36-.1-1.48-.36-2.2-1.84-2.4-.36-.05-1.12-.1-1.53-.1-.15,0-.36-.2-.36-.36,0-.26.2-.36.72-.36,2.05,0,4.86.1,5.12.1.2,0,3.58-.1,4.96-.1.46,0,.72.1.72.36,0,.15-.2.31-.36.31-.31,0-.97.05-1.48.1-1.33.26-1.59.92-1.69,2.46-.05,1.38-.05,2.61-.05,9.36v7.77Z"/>
      <path class="cls-7" d="M424.83,16.84c.56-1.43.77-1.69,1.07-1.69.46,0,.61.61,1.07,1.59.82,1.84,8.03,19.79,10.79,26.39,1.64,3.89,2.86,4.45,3.84,4.76.67.21,1.33.26,1.79.26.25,0,.56.1.56.36s-.51.36-1.02.36c-.67,0-3.99,0-7.11-.1-.87-.05-1.59-.05-1.59-.31,0-.2.1-.2.31-.31.25-.1.72-.46.41-1.18l-4.04-9.97c-.1-.2-.15-.26-.41-.26h-10.38c-.21,0-.36.1-.46.36l-2.56,6.96c-.41,1.07-.67,2.15-.67,2.92,0,.87.77,1.18,1.53,1.18h.41c.36,0,.46.15.46.36,0,.26-.26.36-.67.36-1.07,0-3.53-.15-4.04-.15-.46,0-2.71.15-4.55.15-.56,0-.87-.1-.87-.36,0-.2.21-.36.41-.36.31,0,.97-.05,1.33-.1,2.05-.26,2.92-1.79,3.79-3.99l10.59-27.21ZM429.84,34.95c.21,0,.21-.1.15-.31l-4.45-11.92c-.26-.67-.51-.67-.77,0l-4.19,11.92c-.05.2,0,.31.15.31h9.1Z"/>
      <path class="cls-7" d="M451.79,42.93c.1,3.58.51,4.65,1.74,4.96.82.21,1.84.26,2.25.26.21,0,.36.15.36.36,0,.26-.31.36-.82.36-2.56,0-4.35-.15-4.76-.15s-2.3.15-4.35.15c-.46,0-.72-.05-.72-.36,0-.2.15-.36.36-.36.36,0,1.18-.05,1.84-.26,1.12-.31,1.28-1.48,1.28-5.42v-24.91c0-1.74.26-2.2.61-2.2.51,0,1.28.87,1.74,1.33.72.72,7.26,7.67,14.22,14.83,4.45,4.6,9.26,9.77,10.64,11.2l-.46-21.79c-.05-2.81-.31-3.79-1.69-4.04-.82-.15-1.84-.21-2.2-.21-.31,0-.36-.26-.36-.41,0-.26.36-.31.87-.31,2.05,0,4.19.1,4.71.1s2-.1,3.84-.1c.46,0,.82.05.82.31,0,.15-.2.41-.51.41-.21,0-.56,0-1.07.1-1.48.31-1.59,1.18-1.59,3.79l-.1,25.47c0,2.87-.05,3.12-.36,3.12-.46,0-.92-.36-3.43-2.66-.46-.41-6.96-6.8-11.71-11.76-5.22-5.47-10.28-10.79-11.66-12.33l.51,20.51Z"/>
      <path class="cls-7" d="M495.57,36.23c0,4.19,0,7.62.21,9.41.15,1.28.31,2.1,1.64,2.3.66.1,1.64.21,2.05.21.25,0,.36.2.36.36,0,.21-.2.36-.72.36-2.51,0-5.42-.15-5.63-.15-.26,0-3.07.15-4.45.15-.46,0-.72-.1-.72-.36,0-.15.1-.36.36-.36.41,0,.97-.1,1.38-.21.87-.2,1.02-1.02,1.18-2.3.21-1.79.26-5.22.26-9.41v-7.67c0-6.75,0-7.98-.1-9.36-.1-1.48-.46-2.15-1.43-2.35-.51-.1-1.07-.15-1.38-.15-.21,0-.36-.2-.36-.36,0-.26.21-.36.72-.36,1.48,0,4.3.1,4.55.1.2,0,3.12-.1,4.5-.1.51,0,.72.1.72.36,0,.15-.2.36-.36.36-.31,0-.61,0-1.12.1-1.23.26-1.48.87-1.59,2.4-.05,1.38-.05,2.61-.05,9.36v7.67Z"/>
    </g>
  </g>
  <g>
    <path class="cls-9" d="M186.58,18.27c0-9.79,0-11.55-.12-13.56-.13-2.13-.63-3.14-2.7-3.58-.5-.13-1.57-.19-2.13-.19-.25,0-.5-.13-.5-.38,0-.38.31-.5,1-.5,2.82,0,6.78.19,7.09.19.69,0,5.46-.19,7.41-.19,3.95,0,8.16.38,11.48,2.76,1.57,1.13,4.33,4.21,4.33,8.54,0,4.64-1.95,9.29-7.59,14.5,5.15,6.59,9.41,12.18,13.05,16.07,3.39,3.58,6.09,4.27,7.66,4.52,1.19.19,2.07.19,2.45.19.31,0,.56.19.56.38,0,.38-.38.5-1.51.5h-4.46c-3.51,0-5.08-.31-6.72-1.19-2.7-1.44-4.89-4.52-8.47-9.23-2.64-3.45-5.58-7.66-6.84-9.29-.25-.25-.44-.38-.82-.38l-7.72-.13c-.31,0-.44.19-.44.5v1.51c0,6.02,0,10.98.31,13.62.19,1.82.56,3.2,2.45,3.45.88.13,2.26.25,2.82.25.38,0,.5.19.5.38,0,.31-.31.5-1,.5-3.45,0-7.41-.19-7.72-.19-.06,0-4.02.19-5.9.19-.69,0-1-.13-1-.5,0-.19.13-.38.5-.38.57,0,1.32-.12,1.88-.25,1.26-.25,1.57-1.63,1.82-3.45.31-2.64.31-7.59.31-13.62v-11.05ZM191.6,23.73c0,.31.12.56.44.75.94.56,3.83,1,6.59,1,1.51,0,3.26-.19,4.71-1.19,2.2-1.51,3.83-4.9,3.83-9.67,0-7.84-4.14-12.55-10.86-12.55-1.88,0-3.58.19-4.2.38-.31.13-.5.38-.5.75v20.52Z"/>
    <g>
      <path class="cls-9" d="M233.48,34.85c0,4.19,0,7.62.21,9.41.15,1.28.31,2.1,1.64,2.3.66.1,1.64.21,2.05.21.25,0,.36.2.36.36,0,.21-.2.36-.72.36-2.51,0-5.42-.15-5.63-.15-.26,0-3.07.15-4.45.15-.46,0-.72-.1-.72-.36,0-.15.1-.36.36-.36.41,0,.97-.1,1.38-.21.87-.2,1.02-1.02,1.18-2.3.21-1.79.26-5.22.26-9.41v-7.67c0-6.75,0-7.98-.1-9.36-.1-1.48-.46-2.15-1.43-2.35-.51-.1-1.07-.15-1.38-.15-.21,0-.36-.2-.36-.36,0-.26.21-.36.72-.36,1.48,0,4.3.1,4.55.1.2,0,3.12-.1,4.5-.1.51,0,.72.1.72.36,0,.15-.2.36-.36.36-.31,0-.61,0-1.12.1-1.23.26-1.48.87-1.59,2.4-.05,1.38-.05,2.61-.05,9.36v7.67Z"/>
      <path class="cls-9" d="M256.14,15.46c.56-1.43.77-1.69,1.07-1.69.46,0,.61.61,1.07,1.59.82,1.84,8.03,19.79,10.79,26.39,1.64,3.89,2.86,4.45,3.84,4.76.67.21,1.33.26,1.79.26.26,0,.56.1.56.36s-.51.36-1.02.36c-.67,0-3.99,0-7.11-.1-.87-.05-1.59-.05-1.59-.31,0-.2.1-.2.31-.31.26-.1.72-.46.41-1.18l-4.04-9.97c-.1-.2-.15-.26-.41-.26h-10.38c-.21,0-.36.1-.46.36l-2.56,6.96c-.41,1.07-.67,2.15-.67,2.92,0,.87.77,1.18,1.53,1.18h.41c.36,0,.46.15.46.36,0,.26-.25.36-.66.36-1.07,0-3.53-.15-4.04-.15-.46,0-2.71.15-4.55.15-.56,0-.87-.1-.87-.36,0-.2.21-.36.41-.36.31,0,.97-.05,1.33-.1,2.05-.26,2.92-1.79,3.79-3.99l10.59-27.21ZM261.16,33.57c.21,0,.21-.1.15-.31l-4.45-11.92c-.26-.67-.51-.67-.77,0l-4.19,11.92c-.05.2,0,.31.15.31h9.1Z"/>
      <path class="cls-9" d="M281.21,27.18c0-6.75,0-7.98-.1-9.36-.1-1.48-.36-2.2-1.84-2.4-.36-.05-1.12-.1-1.53-.1-.15,0-.36-.2-.36-.36,0-.26.2-.36.72-.36,2.05,0,4.96.1,5.22.1.51,0,3.38-.1,6.04-.1,4.5,0,12.74-.41,18.05,4.96,2.25,2.25,4.4,5.88,4.4,11.05,0,5.47-2.35,9.67-4.86,12.22-1.94,2-5.98,5.01-13.66,5.01-1.94,0-4.35-.15-6.29-.26-1.94-.15-3.48-.26-3.68-.26-.1,0-.92.05-1.84.05-.92.05-2,.1-2.71.1-.46,0-.72-.1-.72-.36,0-.15.1-.36.36-.36.41,0,.97-.1,1.38-.21.87-.2.97-1.02,1.18-2.3.26-1.79.26-5.22.26-9.41v-7.67ZM285.3,31.88c0,4.6,0,8.64.05,9.46.05,1.07.15,2.66.51,3.12.56.82,2.15,1.74,7.47,1.74,4.14,0,7.83-1.38,10.54-3.94,2.35-2.2,3.53-6.34,3.53-10.33,0-5.52-2.4-9.05-4.25-10.89-4.25-4.3-9.21-4.86-14.58-4.86-.87,0-2.3.15-2.71.31s-.56.36-.56.87v14.53Z"/>
    </g>
  </g>
  <path class="cls-8" d="M143.52,37.81c0,12.68-.48,22.97-.48,22.97,0,0-.48-10.28-.48-22.97s.48-22.97.48-22.97c0,0,.48,10.28.48,22.97Z"/>
  <g>
    <path class="cls-12" d="M58.95,30.61c0-2.37.01-23.3.52-27.33l.14-1.13-8.71-.04.09.82c.08.76.16,2.25.23,4.58.05,1.64.09,3.54.12,5.56.08,5.03.14,11.4.14,16.64v6.77s0,.86,0,.86h7.48v-6.72Z"/>
    <path class="cls-2" d="M38.75,36.02c-.73-.21-1.46-.44-2.2-.72-3-1.12-12.78-5.72-12.78-18.08,0-5.61,3.75-12.04,13.63-14.85-5.45.31-10.78.97-14.42,2.42-4.91,1.94-7.4,5.18-7.4,9.62,0,5.47,5.91,13.23,13.17,17.28l1.59.89-.73,1.66c-.21.48-.81,1.57-1.71,3.09h9.82c.26-.31.45-.54.55-.68l.48-.63Z"/>
    <path class="cls-5" d="M75.47,26.23l-.89-1.42,1.25-1.13c3.53-3.19,20.05-17.15,26.32-21.3-.5,0-.98.01-1.42.01-1.25,0-2.79-.02-4.43-.05l-1.3,2.19c-2.26,3.82-14.21,14.56-27.3,25.97l1.07,1.15c.94,1.01,2.9,3.04,5.5,5.66h9.4c-3.98-5.15-7.06-9.3-8.19-11.09Z"/>
  </g>
  <g>
    <path class="cls-3" d="M3.93,71.99l.16.03c6.79-3.89,29.53-29.77,33.63-34.7h-9.82c-4.26,7.26-15.32,24.54-23.98,34.67Z"/>
    <path class="cls-6" d="M111.12,71.15c-6.2-6.97-18.9-22.74-27.47-33.83h-9.4c10.03,10.16,29.58,29.35,36.87,33.83Z"/>
    <path class="cls-10" d="M51.48,37.32v1.14c-.03,13.56-.23,25.38-.51,29.43l-.07,1.02c1.66-.02,3.19-.04,4.36-.04h1.1c1.05,0,2.42.02,3.92.05l-.68-.29-.13-1.17c-.49-4.53-.52-23.12-.52-26.79v-3.35h-7.48Z"/>
  </g>
  <text class="cls-4" transform="translate(181.12 71.15) scale(.99 1)"><tspan x="0" y="0">UX Engineer &amp; Front-end</tspan><tspan class="cls-1" x="235.79" y="0"> </tspan><tspan x="240.46" y="0">Architect</tspan></text>
</svg>