<?xml version="1.0" encoding="utf-8"?>
<svg xmlns="http://www.w3.org/2000/svg" xml:space="preserve" viewBox="0 0 240 234" preserveAspectRatio="xMidYMid meet" role="img" aria-label="Adobe Creative Cloud">
  <defs>
    <linearGradient id="adobeCcGradient" x1="0%" y1="0%" x2="100%" y2="100%">
      <stop offset="0%" stop-color="#ff0000" />
      <stop offset="15%" stop-color="#ff8c00" />
      <stop offset="30%" stop-color="#ffff00" />
      <stop offset="50%" stop-color="#008000" />
      <stop offset="70%" stop-color="#0000ff" />
      <stop offset="85%" stop-color="#4b0082" />
      <stop offset="100%" stop-color="#ee82ee" />
    </linearGradient>
  </defs>
  <path fill="url(#adobeCcGradient)" d="M192.60001 70.5c-12.7-13.7-30.60001-21.4-49.2-21.3-18.2 0-36.7 7.8-48.6 20.4-2.2-.2-4.4-.4-6.5-.4-35.7 0-57.8 30-57.8 57.8.1 15 5.9 29.39999 16.2 40.39999 10.8 11.5 25.8 18 41.6 18h55.1c37.40001 0 67.8-30.7 67.8-68.3C211 99.8 204.39999 83.2 192.60001 70.5zM87.2 175.60001c-26.5 0-47.9-21.5-47.9-48 0-26.3 21.3-47.7 47.7-47.9 11.7 0 23.1 4.3 31.8 12.1L119 92l19.89999 20.4c3.3 3.4 3.2 8.8-.2 12.1-3.39999 3.3-8.8 3.2-12.1-.2L107 104.1c-12.8-11-32.1-9.6-43.1 3.2-4.8 5.5-7.4 12.6-7.4 19.9 0 16.8 14.3 31 31.2 31h3.9v.1c5.6 7.8 21.3 17.3 21.3 17.3H87.2zm98.19999-17.20002c-10.7 11.2-25.5 17.5-41 17.60001-14.7 0-29.7-6.60001-41.2-18L77 131.60001c-3.3-3.39999-3.2-8.8.1-12.1 1.6-1.6 3.7-2.4 6-2.4s4.5.9 6.1 2.6l26.1 26.1c8.3 8.3 18.9 13 29.1 13 10.89999 0 21.3-4.5 28.8-12.5 7.7-7.89999 12-18.5 12-29.5 0-22.6-18.39999-40.9-41-41-8.60001 0-15.7 1.7-22.7 6.6-.1-.1-2-1.3-4.1-2.6-1.3-.8-2.7-1.6-3.9-2.2-1.2-.7-4.8-2.4-6.9-3.3-.5-.2-1.2-.5-1.5-.6h.1c10.8-10.1 24.2-15 39-15 32.09999 0 58 26 58.09999 58.1C202.3 132.3 196.3 147.3 185.39999 158.39999z"/>
</svg>