<svg xmlns="http://www.w3.org/2000/svg" style="display:none">
  <!-- Languages -->
  <symbol id="icon-html5" viewBox="0 0 512 512">
    <path fill="currentColor" d="M71 32l34 403 151 45 151-45 34-403H71zm300 106l-3 34H176l6 67h181l-16 156-98 28-98-28-7-78h47l4 41 54 15 54-15 6-62H167l-15-155h219z" />
  </symbol>
  <symbol id="icon-css3" viewBox="0 0 512 512">
    <path fill="currentColor" d="M71 32l34 403 151 45 151-45 34-403H71zm278 134H176l4 41h165l-12 126-77 22-77-22-5-54h38l3 28 41 11 41-11 9-81H167l-11-111h236l-7 81z" />
  </symbol>
  <symbol id="icon-javascript" viewBox="0 0 448 512">
    <path fill="currentColor" d="M0 32v448h448V32H0zm242.7 332.4c0 44.9-26.4 65.4-64.9 65.4-34.8 0-55.2-18-65.6-39.9l35.7-21.6c6.9 12.2 13.2 22.5 28.4 22.5 14.5 0 23.7-5.6 23.7-27.4V224h42.7v140.4zm100.9 66c-40.3 0-66.4-19.2-79-44.3l35.7-20.7c9.4 15.4 21.7 26.8 43.4 26.8 18.2 0 29.9-9.1 29.9-21.7 0-15.1-11.9-20.5-32-29.3l-11-4.7c-31.8-13.5-52.8-30.5-52.8-66.5 0-33.1 25.2-58.3 64.5-58.3 28 0 48.2 9.8 62.7 35.5l-34.3 22c-7.5-13.5-15.6-18.8-28.4-18.8-12.9 0-21.1 8.2-21.1 18.8 0 13.2 8.2 18.6 27.2 26.8l11 4.7c37.3 16 58.3 32.5 58.3 69.4 0 39.7-31.2 61.7-72.8 61.7z" />
  </symbol>
  <symbol id="icon-typescript" viewBox="0 0 512 512">
    <path fill="currentColor" d="M0 32v448h448V32H0zm286.7 206.9h-58.5v149.3h-37.1V238.9h-58.9v-32.2h154.5v32.2zm28.4 150.1c-8.6 0-17.1-1.9-24.3-5.7-7.3-3.8-13.1-8.5-18.2-15.2l25.6-24.3c3.8 5.7 8.3 10.2 13.4 13.1 5.1 2.9 10.9 4.5 17.9 4.5 8 0 14.4-2.2 19.2-6.7 4.8-4.5 7-10.2 7-17.3 0-6.7-2.2-12.5-6.4-17.3-4.2-4.8-10.9-9.9-20.5-15.7-10.6-6.2-18.6-11.3-24.3-16.3-5.7-4.8-10.6-10.9-14.1-17.9-3.5-7-5.4-15.2-5.4-24.6 0-14.4 4.8-26.2 14.1-35.5 9.3-9.3 21.1-14.1 35.5-14.1 9.6 0 18.2 1.6 26.2 5.1 8 3.5 15 8.6 21.1 15.4l-23.7 26.2c-3.8-4.8-8-8.3-12.8-10.6-4.8-2.2-10.2-3.5-16-3.5-6.7 0-12.1 2.2-16.3 6.4-4.2 4.2-6.4 9.9-6.4 17.3 0 5.7 1.6 10.6 4.8 14.7 3.2 4.2 9.3 9.3 18.6 14.7 11.5 6.7 20.2 12.5 26.2 18.2 6 5.7 10.6 12.1 13.7 19.5 3.2 7.3 4.8 15.7 4.8 24.6 0 15.7-5.1 28.8-15 38.4-9.9 9.9-23.4 14.7-40.6 14.7z" />
  </symbol>
  <symbol id="icon-php" viewBox="0 0 640 512">
    <path fill="currentColor" d="M320 104C146 104 0 167.5 0 248s146 144 320 144 320-63.5 320-144S494 104 320 104zm-98.7 160.9c-8.2 41.4-37.1 41.4-68.1 41.4h-17.6l12.1-62.1h18.1c22.4 0 41-.8 55.5-20.2 13.3-17.9 17.9-45 8.6-66.3-12.5-28.6-41.4-35.8-69.3-35.8H96.8l-32.9 170.7H145c19.9 0 39.7-.5 57.6-7.2 35.3-13.5 53.4-41.8 60.7-77.6 7.6-38.5.3-82.6-32.7-108.2-23.2-18.3-53.7-22.4-82.3-22.4H55.1L22.2 256h61.5l20.6-107.2h23.2c17.9 0 36.1 1.7 50.8 12.5 24.7 18.3 21.2 54.6 14 82.6zm170.1-67.4h-44.8L318.7 256h44.8l-11.9 61.9h-44.8L286.7 384h-44.8l32.9-170.7h89.3l-32.7 170.7h-44.8l11.9-61.9h-44.8l23.1-122.6h89.3l32.9-170.7h44.8l-23.1 122.6h44.8L426.7 256h-44.8l-11.9 61.9h44.8L449.8 384h-44.8l-32.9-170.7z" />
  </symbol>
  <symbol id="icon-react" viewBox="0 0 512 512">
    <path fill="currentColor" d="M418.2 177.2c-5.4-1.8-10.8-3.5-16.2-5.1.9-3.7 1.7-7.4 2.4-11.1 6.2-31.1 2.2-56-11.7-64.6-13.5-8.4-37.5.7-63.1 22.2-4.4 3.7-8.7 7.6-12.9 11.7-2.9-2.8-5.9-5.5-8.9-8.1-24.6-21.4-49.4-33.1-63.4-24.7-13.8 8.5-17.8 33.2-11.8 63.8.7 3.6 1.5 7.3 2.4 11-5.9 1.7-11.7 3.5-17.4 5.4-30 9.8-51.5 24.2-51.5 39.1 0 15.3 22.9 30.6 54.3 40.3 5 1.5 10 2.9 15 4.2-1.6 6-3.1 11.9-4.4 17.8-6.1 30.5-2 54.9 11.7 63.4 14 8.6 38.9-1 64-22.9 3.8-3.3 7.7-6.8 11.5-10.5 4.7 4.6 9.5 8.9 14.4 13 24.2 20.8 47.8 31.5 61.3 23 13.8-8.5 18-33.4 11.8-64.4-.9-4.4-1.9-8.9-3.1-13.5 4.2-1.2 8.3-2.5 12.4-3.9 31.8-10.4 53.9-25.3 53.9-40.6 0-14.9-21.8-29.4-51.1-39.2zM280.5 188.2c8.7 10.1 17.1 20.7 24.9 31.5-8.2 10.8-16.8 21.3-25.5 31.4-8.7-10.1-17.1-20.7-24.9-31.5 8.2-10.8 16.8-21.3 25.5-31.4zM206.9 256c-12.3-4-24.3-8.7-35.8-14 11.5-5.3 23.6-10 36-14.1 5.4 7.7 10.9 15.3 16.5 22.8-5.6 7.6-11 15.1-16.7 22.4zM256 345.3c-5.4-7.7-11-15.2-16.7-22.4 5.6-7.6 11-15.1 16.7-22.4 12.3 4 24.3 8.7 35.8 14-11.5 5.3-23.6 10-35.8 14.1zM305.1 256c5.6-7.6 11-15.1 16.7-22.4 12.3 4 24.3 8.7 35.8 14-11.5 5.3-23.6 10-36 14.1-5.4-7.7-10.9-15.3-16.5-22.8z" />
  </symbol>
  <symbol id="icon-tailwind" viewBox="0 0 640 512">
    <path fill="currentColor" d="M320 128c-64 0-104 32-120 96 24-32 52-44 84-36 18 4.6 31 18.3 45.5 33.5C356.4 245.9 384 276 440 276c64 0 104-32 120-96-24 32-52 44-84 36-18-4.6-31-18.3-45.5-33.5C403.6 158.1 376 128 320 128zM200 256c-64 0-104 32-120 96 24-32 52-44 84-36 18 4.6 31 18.3 45.5 33.5C236.4 373.9 264 404 320 404c64 0 104-32 120-96-24 32-52 44-84 36-18-4.6-31-18.3-45.5-33.5C283.6 286.1 256 256 200 256z" />
  </symbol>
  <symbol id="icon-node" viewBox="0 0 448 512">
    <path fill="currentColor" d="M224 32L17.6 160v192L224 480l206.4-128V160L224 32zm0 64l160 96v128l-160 96-160-96V192l160-96zm0 64l-96 55.6v107.7l96 55.6 96-55.6V215.6L224 160z" />
  </symbol>
  <symbol id="icon-sass" viewBox="0 0 512 512">
    <path fill="currentColor" d="M349.9 178.2c-59.1 0-107 24.1-107 53.8 0 21.1 25 38.4 63.5 46.9-8.2 16.4-13.3 32.7-12.4 47.2 2.3 37.4 34.3 62.5 90.4 62.5 74.1 0 124.8-43.5 124.8-109.5 0-74.8-63.9-101-159.3-101zm10.5 171.6c-30.1 0-48.9-16.3-50.3-43.7-.6-10.7 3.1-23.6 9.7-37.2 7.1.9 14.3 1.4 21.6 1.4 11.2 0 22.1-.9 32.4-2.6 7.2 4.3 13.8 8.9 19.5 13.8 14.9 12.6 21.9 25 21.9 37.7 0 18.9-18.4 30.6-54.8 30.6z" />
  </symbol>
  <symbol id="icon-vue" viewBox="0 0 512 512">
    <path fill="currentColor" d="M256 144l-64 112 64 112 64-112-64-112zm160-80H288l-32 56-32-56H96l160 288 160-288z" />
  </symbol>
  <symbol id="icon-git" viewBox="0 0 448 512">
    <path fill="currentColor" d="M440.7 236.2L248.3 43.7c-5.4-5.4-14.2-5.4-19.6 0l-39.8 39.8 50.1 50.1c14.7-4.9 31-1.6 42.5 9.9 11.6 11.6 14.9 28.9 9.9 43.8l50.6 50.6c14.9-4.9 32.2-1.7 43.8 9.9 17.7 17.7 17.7 46.4 0 64.1-17.7 17.7-46.4 17.7-64.1 0-11.9-11.9-15.2-29.2-9.8-44.3l-47.9-47.9-.3 125.6c4.3 2.1 8.3 4.9 11.8 8.5 17.7 17.7 17.7 46.4 0 64.1-17.7 17.7-46.4 17.7-64.1 0-17.7-17.7-17.7-46.4 0-64.1 4.6-4.6 10-8.1 15.7-10.4V216.4c-5.7-2.3-11-5.8-15.5-10.3-14.3-14.3-17-35.4-8.2-52.7l-49.3-49.3L7.3 229.9c-5.4 5.4-5.4 14.2 0 19.6l192.4 192.5c5.4 5.4 14.2 5.4 19.6 0l221.3-221.3c5.5-5.4 5.5-14.2.1-19.6z" />
  </symbol>
  <symbol id="icon-gulp" viewBox="0 0 384 512">
    <path fill="currentColor" d="M240 32l-16 96h-64l-16-96h96zM64 160h256l-32 320H96L64 160zm160 64h-64l-16 192h96l-16-192z" />
  </symbol>
  <symbol id="icon-aws" viewBox="0 0 640 512">
    <path fill="currentColor" d="M204.8 160l32 192h-64l32-192zm96 0l32 192h-64l32-192zm96 0l32 192h-64l32-192zM96 128h448v32H96v-32z" />
  </symbol>
  <symbol id="icon-azure" viewBox="0 0 512 512">
    <path fill="currentColor" d="M32 384L192 64l96 160-96 160h288l-32 64H32v-64z" />
  </symbol>
  <symbol id="icon-webpack" viewBox="0 0 512 512">
    <path fill="currentColor" d="M256 32L32 160v192l224 128 224-128V160L256 32zm0 64l160 96v128l-160 96-160-96V192l160-96z" />
  </symbol>
  <symbol id="icon-figma" viewBox="0 0 256 384">
    <path fill="currentColor" d="M128 0H64v64h64V0zm0 64h64V0h-64v64zm0 64H64v64h64v-64zm0 64h64v-64h-64v64zm0 64a64 64 0 1064 64v-64h-64z" />
  </symbol>
  <symbol id="icon-xd" viewBox="0 0 512 512">
    <path fill="currentColor" d="M64 64h384v384H64V64zm256 256l-48-80 48-80h-64l-16 32-16-32h-64l48 80-48 80h64l16-32 16 32h64zm32-160v160h64V160h-64z" />
  </symbol>
  <symbol id="icon-adobe" viewBox="0 0 512 512">
    <path fill="currentColor" d="M32 32v448h448V32H32zm256 64h96v320L288 96zm-160 0h96L96 416V96z" />
  </symbol>
  <symbol id="icon-photoshop" viewBox="0 0 512 512">
    <path fill="currentColor" d="M64 64h384v384H64V64zm64 64v224h64c53 0 96-43 96-96s-43-96-96-96h-64zm224 0c-35.3 0-64 28.7-64 64h64v96c35.3 0 64-28.7 64-64s-28.7-96-64-96z" />
  </symbol>
  <symbol id="icon-illustrator" viewBox="0 0 512 512">
    <path fill="currentColor" d="M64 64h384v384H64V64zm256 288l-32-96h-64l-32 96h-64l96-256h64l96 256h-64zm-64-160l-16 48h32l-16-48z" />
  </symbol>
  <symbol id="icon-design-systems" viewBox="0 0 512 512">
    <path fill="currentColor" d="M256 32L32 160v192l224 128 224-128V160L256 32zm0 96l160 96-160 96-160-96 160-96zm0 256l160-96v64l-160 96-160-96v-64l160 96z" />
  </symbol>
  <symbol id="icon-responsive" viewBox="0 0 512 512">
    <path fill="currentColor" d="M32 64h448v256H32V64zm64 64v128h320V128H96zm96 256h128v64H192v-64z" />
  </symbol>
  <symbol id="icon-google" viewBox="0 0 512 512">
    <path fill="currentColor" d="M256 32c-123.7 0-224 100.3-224 224s100.3 224 224 224c60.6 0 111.7-22.9 151.3-60.5L332 330.7c-20.6 13.9-47.1 22.1-76 22.1-64.5 0-119.8-43.9-139.4-103.1h-.1c0 0 0-.1-.1-.1-5-15-7.7-31.1-7.7-47.6 0-16.5 2.7-32.6 7.7-47.6 19.5-59.2 74.9-103.1 139.4-103.1 35.4 0 65.7 12.1 90.2 31.9l43.5-43.5C367.8 54.1 315.3 32 256 32zm224 224c0-13.9-1.5-27.5-4.3-40.6H256v81.2h124.9c-10.8 51.4-56.2 89.4-110.9 89.4-64.5 0-119.8-43.9-139.4-103.1h-.1c0 0 0-.1-.1-.1l-64.2 49.5C107.3 405.8 176.3 448 256 448c123.7 0 224-100.3 224-224z" />
  </symbol>
  <symbol id="icon-hotjar" viewBox="0 0 384 512">
    <path fill="currentColor" d="M192 32c-53 0-96 43-96 96 0 64 64 128 64 192 0 64 43 128 96 128 53 0 96-43 96-96 0-64-64-128-64-192 0-64-43-128-96-128z" />
  </symbol>
  <symbol id="icon-ab-testing" viewBox="0 0 512 512">
    <path fill="currentColor" d="M64 96h384v64H64V96zm0 128h384v64H64v-64zm0 128h384v64H64v-64z" />
  </symbol>
  <symbol id="icon-seo" viewBox="0 0 512 512">
    <path fill="currentColor" d="M256 32C132.3 32 32 132.3 32 256s100.3 224 224 224 224-100.3 224-224S379.7 32 256 32zm0 64c88.2 0 160 71.8 160 160 0 32.8-10.1 63.2-27.3 88.4l-74.9-74.9c6.4-9.6 10.2-21.1 10.2-33.5 0-33.9-27.5-61.4-61.4-61.4-12.4 0-23.9 3.8-33.5 10.2l-74.9-74.9C192.8 106.1 223.2 96 256 96zm-64 96c0-8.8 7.2-16 16-16s16 7.2 16 16-7.2 16-16 16-16-7.2-16-16zm-1.1 41.1l74.9 74.9c-9.6 6.4-21.1 10.2-33.5 10.2-33.9 0-61.4-27.5-61.4-61.4 0-12.4 3.8-23.9 10.2-33.7z" />
  </symbol>
  <symbol id="icon-angular" viewBox="0 0 512 512">
    <path fill="currentColor" d="M256 32L32 128l64 256 160 96 160-96 64-256L256 32zm0 64l128 48-32 160-96 64-96-64-32-160 128-48zm0 64l-64 160h128l-64-160z" />
  </symbol>
  <symbol id="icon-bootstrap" viewBox="0 0 512 512">
    <path fill="currentColor" d="M64 64h384v384H64V64zm96 64v256h128c53 0 96-43 96-96s-43-96-96-96h-32c35.3 0 64-28.7 64-64s-28.7-64-64-64H160zm128 128c35.3 0 64 28.7 64 64s-28.7 64-64 64h-64v-128h64zm-32-128c17.7 0 32 14.3 32 32s-14.3 32-32 32h-64v-64h64z" />
  </symbol>
  <symbol id="icon-gulp-alt" viewBox="0 0 384 512">
    <path fill="currentColor" d="M192 32l-64 96 64 96 64-96-64-96zm-96 192h192l32 224H64l32-224z" />
  </symbol>
  <symbol id="icon-wordpress" viewBox="0 0 512 512">
    <path fill="currentColor" d="M256 32C132.3 32 32 132.3 32 256s100.3 224 224 224 224-100.3 224-224S379.7 32 256 32zm0 64c47.6 0 91 19.1 122.4 50.2-10.1 3-21.6 5.1-25.1 5.1-13.4 0-34-16.1-52.4-16.1-19.6 0-40.3 14.9-40.3 42.7 0 11.3 5.7 24.1 12.9 36.6l45.7 84.3 16.6 55.6L324 383.2l-54.2-160.1L232 283.3l-31.5-104.9c13.2-23.4 37-50.4 55.6-62-5.4-.4-11.1-.7-16.1-.7-53.1 0-98.7 30.1-121.5 74 3.4.1 6.6.2 9.4.2 15.3 0 39.1-1.8 39.1-1.8 7.9-.5 8.8 11.2.9 12.1 0 0-7.9.9-16.7 1.3l53.1 157.9 31.9-95.8-21.7-62.1c-13.3-22.4-18.7-40.7-18.7-56.5 0-21.9 16.6-45.7 50.1-45.7 29.9 0 50.9 21.4 50.9 49.9 0 18.1-6.9 41.3-14.5 64.2-4 12.7-7.9 25.8-7.9 37.5 0 13.7 5.2 29.6 14.4 51.8l19.1 51.9C356.5 321.6 384 286.5 384 240c0-82.8-67.2-144-128-144z" />
  </symbol>
</svg>